<svg id="Capa_1" enable-background="new 0 0 512 512" height="512" viewBox="0 0 512 512" width="512" xmlns="http://www.w3.org/2000/svg"><g><path d="m466 150c-24.814 0-45-20.187-45-45v-105h-120v30h-90v-30h-120v105c0 24.813-20.187 45-45 45h-15v299.5c0 34.462 28.037 62.5 62.5 62.5h325c34.463 0 62.5-28.038 62.5-62.5v-299.5zm-135-120h60v75c0 36.219 25.81 66.524 60 73.493v91.507h-45v-30h-90v30h-45v-107.263c34.137-6.605 60-36.7 60-72.737zm75 270h45v45h-45zm-30-30v105h-30v-105zm-60 75h-45v-45h45zm-120-45h45v45h-45zm105-240v30c0 24.316-19.783 44.1-44.101 44.1h-1.799c-24.317 0-44.1-19.784-44.1-44.1v-30zm-180 45v-75h60v60c0 36.037 25.863 66.132 60 72.737v107.263h-45v-30h-90v30h-45v-91.507c34.19-6.969 60-37.274 60-73.493zm45 165v105h-30v-105zm-60 75h-45v-45h45zm-45 104.5v-74.5h45v30h90v-30h45v107h-147.5c-17.921 0-32.5-14.58-32.5-32.5zm357.5 32.5h-147.5v-107h45v30h90v-30h45v74.5c0 17.92-14.579 32.5-32.5 32.5z"/></g></svg>