<?xml version="1.0" encoding="iso-8859-1"?>
<!-- Generator: Adobe Illustrator 19.0.0, SVG Export Plug-In . SVG Version: 6.00 Build 0)  -->
<svg version="1.1" id="Layer_1" xmlns="http://www.w3.org/2000/svg" xmlns:xlink="http://www.w3.org/1999/xlink" x="0px" y="0px"
	 viewBox="0 0 297 297" style="enable-background:new 0 0 297 297;" xml:space="preserve">
<g>
	<g>
		<g>
			<path d="M191.786,147.84l-97.661,55.446L87.862,234.6c-0.536,2.68,0.303,5.451,2.235,7.384l4.069,4.069l105.305-59.786
				L191.786,147.84z"/>
			<polygon points="110.757,120.125 178.546,81.638 176.693,72.377 120.307,72.377 			"/>
			<polygon points="181.922,98.521 106.515,141.333 98.367,182.077 188.409,130.956 			"/>
			<path d="M120.753,56.028h55.495l15.089-45.269c0.83-2.493,0.412-5.233-1.124-7.364C188.676,1.263,186.208,0,183.581,0h-70.162
				c-2.627,0-5.095,1.263-6.632,3.395c-1.536,2.131-1.954,4.871-1.124,7.364L120.753,56.028z"/>
			<path d="M209.138,234.6l-6.29-31.45l-96.69,54.895l36.561,36.561c1.597,1.596,3.688,2.394,5.781,2.394
				c2.093,0,4.184-0.798,5.781-2.394l52.622-52.622C208.835,240.051,209.674,237.28,209.138,234.6z"/>
		</g>
	</g>
</g>
<g>
</g>
<g>
</g>
<g>
</g>
<g>
</g>
<g>
</g>
<g>
</g>
<g>
</g>
<g>
</g>
<g>
</g>
<g>
</g>
<g>
</g>
<g>
</g>
<g>
</g>
<g>
</g>
<g>
</g>
</svg>
