<?xml version="1.0" encoding="iso-8859-1"?>
<!-- Generator: Adobe Illustrator 19.0.0, SVG Export Plug-In . SVG Version: 6.00 Build 0)  -->
<svg version="1.1" id="Capa_1" xmlns="http://www.w3.org/2000/svg" xmlns:xlink="http://www.w3.org/1999/xlink" x="0px" y="0px"
	 viewBox="0 0 512 512" style="enable-background:new 0 0 512 512;" xml:space="preserve">
<g>
	<g>
		<path d="M377,0h-69.027l-4.453,6.68C292.744,22.842,275.425,32.111,256,32.111s-36.744-9.27-47.52-25.432L204.027,0H135
			C60.561,0,0,60.561,0,135c0,0.435,0,310.026,0,317h90v60h332v-60h90c0-18.743,0-298.259,0-317C512,60.561,451.439,0,377,0z
			 M256,62.111c11.999,0,23.64-2.457,34.319-7.03c-7.839,13.559-19.656,24.705-34.333,31.784
			c-14.671-7.078-26.483-18.226-34.316-31.789C232.352,59.652,243.997,62.111,256,62.111z M150,92.574V30h32.033
			c4.849,35.536,26.814,66.572,58.967,82.896V422H120c0-4.251,0-246.707,0-251.026C139.394,149.402,150,121.804,150,92.574z M90,422
			H30v-30h60V422z M90,158.787c0,10.1,0,194.382,0,203.213H30V135c0-52.805,39.183-96.623,90-103.924v61.498
			C120,134.57,91.545,156.579,90,158.787z M392,482H120v-30h272V482z M392,422H271V112.882
			C303.108,96.578,325.111,65.595,329.967,30H362v62.574c0,29.229,10.606,56.828,30,78.4C392,175.296,392,417.75,392,422z M482,422
			h-60v-30h60V422z M482,362h-60c0-8.831,0-193.113,0-203.213c-1.586-2.266-30-24.043-30-66.213V31.076
			c50.817,7.301,90,51.119,90,103.924V362z"/>
	</g>
</g>
<g>
	<g>
		
			<rect x="316.498" y="284.393" transform="matrix(0.9455 -0.3257 0.3257 0.9455 -90.0515 126.0675)" width="30.001" height="95.192"/>
	</g>
</g>
<g>
	<g>
		<rect x="132.89" y="317.008" transform="matrix(0.3256 -0.9455 0.9455 0.3256 -192.1972 394.5549)" width="95.189" height="30"/>
	</g>
</g>
<g>
</g>
<g>
</g>
<g>
</g>
<g>
</g>
<g>
</g>
<g>
</g>
<g>
</g>
<g>
</g>
<g>
</g>
<g>
</g>
<g>
</g>
<g>
</g>
<g>
</g>
<g>
</g>
<g>
</g>
</svg>
