<?xml version="1.0" encoding="iso-8859-1"?>
<!-- Generator: Adobe Illustrator 19.0.0, SVG Export Plug-In . SVG Version: 6.00 Build 0)  -->
<svg version="1.1" id="Capa_1" xmlns="http://www.w3.org/2000/svg" xmlns:xlink="http://www.w3.org/1999/xlink" x="0px" y="0px"
	 viewBox="0 0 511.999 511.999" style="enable-background:new 0 0 511.999 511.999;" xml:space="preserve">
<g>
	<g>
		<path d="M361.054,297.151H150.946c-8.449,0-15.299,6.85-15.299,15.299v40.483c0,51.222,41.671,92.894,92.893,92.894h54.918
			c51.222,0,92.893-41.671,92.893-92.894v-40.483C376.352,304,369.503,297.151,361.054,297.151z M283.459,415.231h-54.918
			c-34.351,0-62.296-27.947-62.296-62.297v-25.185h179.51v25.185h0C345.755,387.284,317.81,415.231,283.459,415.231z"/>
	</g>
</g>
<g>
	<g>
		<path d="M361.054,236.135H150.946c-8.449,0-15.299,6.85-15.299,15.299s6.85,15.299,15.299,15.299h210.107
			c8.449,0,15.299-6.85,15.299-15.299S369.503,236.135,361.054,236.135z"/>
	</g>
</g>
<g>
	<g>
		<path d="M442.432,236.832v-19.633c0-23.213-4.276-45.443-12.063-65.958V41.072c0-20.367-16.569-36.936-36.937-36.936h-34.159
			c-20.368,0-36.937,16.569-36.937,36.936v1.902C301.715,35.097,279.355,30.767,256,30.767s-45.713,4.33-66.334,12.206v-1.902
			c0-20.367-16.569-36.936-36.936-36.936h-34.159c-20.367,0-36.936,16.569-36.936,36.936v110.158
			c-7.789,20.52-12.068,42.753-12.068,65.97v19.633C30.269,242.604,0,276.533,0,317.409v75.384
			c0,25.307,20.588,45.895,45.894,45.895h23.674v6.641c0,34.482,28.054,62.535,62.535,62.535h247.794
			c34.482,0,62.535-28.053,62.535-62.535v-6.641h23.674c25.307,0,45.894-20.588,45.894-45.895v-75.384
			C512,276.533,481.73,242.604,442.432,236.832z M69.568,408.09H45.894c-8.435,0-15.297-6.863-15.297-15.298v-75.384
			c0-23.951,16.642-44.088,38.971-49.453V408.09z M352.933,41.072c0-3.495,2.844-6.339,6.34-6.339h34.159
			c3.496,0,6.34,2.844,6.34,6.339v57.566c-13.218-16-29.052-29.763-46.838-40.632V41.072z M112.233,41.072
			c0-3.495,2.844-6.339,6.339-6.339h34.159c3.495,0,6.339,2.844,6.339,6.339v16.931c-17.785,10.869-33.618,24.63-46.836,40.629
			V41.072z M411.835,445.328L411.835,445.328c0,17.611-14.328,31.937-31.937,31.937H132.103c-17.611,0-31.937-14.327-31.937-31.937
			V217.199c0-85.927,69.908-155.835,155.835-155.835c64.634,0,120.199,39.556,143.771,95.729v0.033h0.013
			c7.757,18.497,12.05,38.793,12.05,60.074V445.328z M481.403,392.794c0,8.435-6.863,15.298-15.297,15.298h-23.674V267.956
			c22.329,5.366,38.971,25.502,38.971,49.453V392.794z"/>
	</g>
</g>
<g>
</g>
<g>
</g>
<g>
</g>
<g>
</g>
<g>
</g>
<g>
</g>
<g>
</g>
<g>
</g>
<g>
</g>
<g>
</g>
<g>
</g>
<g>
</g>
<g>
</g>
<g>
</g>
<g>
</g>
</svg>
